<svg xmlns="http://www.w3.org/2000/svg" width="45" height="33" viewBox="0 0 45 33">
  <g id="Logout" transform="translate(0.5 0.5)">
    <path id="XMLID_4_" d="M24.68,114.805H1.961a1.961,1.961,0,1,1,0-3.922H24.68l-2.535-2.535a1.961,1.961,0,0,1,2.773-2.773l5.882,5.882c.045.045.088.093.129.142.01.012.018.025.028.038.03.038.059.076.086.116.008.012.014.024.022.036.027.042.053.085.077.129l.013.027c.025.048.049.1.069.147,0,.006,0,.013.007.019.021.053.041.106.058.161,0,.007,0,.014.005.021.016.054.03.109.041.164,0,.017,0,.034.008.05.008.046.016.093.021.14a1.933,1.933,0,0,1,0,.392c0,.048-.013.095-.021.141,0,.016,0,.033-.008.049-.011.056-.026.111-.042.166,0,.006,0,.013-.005.02-.017.055-.037.109-.058.163l-.007.018c-.021.051-.045.1-.07.148l-.012.026c-.024.045-.051.087-.078.13-.007.012-.014.024-.021.035-.027.04-.057.079-.087.117-.01.012-.018.025-.028.037-.041.05-.084.1-.129.142l-5.882,5.882a1.961,1.961,0,0,1-2.773-2.773Z" transform="translate(12.625 -96.844)" fill="#0d578e" stroke="0d578e" stroke-width="0"/>
    <path id="XMLID_5_" d="M119.35,42.3a16.639,16.639,0,0,1,13.707,7.085,1.919,1.919,0,0,1-.549,2.714,2.057,2.057,0,0,1-2.8-.532,12.573,12.573,0,0,0-10.358-5.355,12.094,12.094,0,1,0,0,24.176,12.579,12.579,0,0,0,10.341-5.331,2.058,2.058,0,0,1,2.8-.526,1.919,1.919,0,0,1,.542,2.716A16.646,16.646,0,0,1,119.35,74.3a16.008,16.008,0,1,1,0-32Z" transform="translate(-102.845 -42.299)" fill="#0d578e" stroke="0d578e" stroke-width="0"/>
  </g>
</svg>
