<?xml version="1.0" encoding="utf-8"?>
<!-- Generator: Adobe Illustrator 15.0.0, SVG Export Plug-In  -->
<!DOCTYPE svg PUBLIC "-//W3C//DTD SVG 1.1//EN" "http://www.w3.org/Graphics/SVG/1.1/DTD/svg11.dtd" [
	<!ENTITY ns_flows "http://ns.adobe.com/Flows/1.0/">
]>
<svg version="1.1"
	 xmlns="http://www.w3.org/2000/svg" xmlns:xlink="http://www.w3.org/1999/xlink" xmlns:a="http://ns.adobe.com/AdobeSVGViewerExtensions/3.0/"
	 x="0px" y="0px" width="860px" height="882px" viewBox="378.356 2138.343 860 882"
	 enable-background="new 378.356 2138.343 860 882" xml:space="preserve">
<defs>
</defs>
<polygon fill="#FFFFFF" points="859.418,738.617 199.837,738.617 199.381,471.143 199.244,396.665 857.161,355.631 "/>
<path fill="#03568C" d="M250.195,190.354l564.518,46.733c0,0,45.73-2.279,42.312,49.014l0.319,119.684H658.828
	c0,0-58.52-1.141-82.068,18.625c-23.549,19.765-40.282,36.087-41.034,69.53c0,0,8.366-63.079-58.52-85.101
	c0,0-47.304-11.398-87.38-10.646l-191.494-1.527V230.248C198.333,230.248,189.784,186.935,250.195,190.354z"/>
<path fill="#66B76C" d="M529.456,602.977c-0.569,10.259-1.71,37.045-30.205,56.992c0,0-16.528,20.517-67.821,23.937l-180.961-1.437
	l-0.296-172.116l204.032,0.297c0,0,18.808,2.758,19.377-16.71c0,0,5.13-24.324-19.674-24.324H200.042l-0.296,368.738
	c0,0-2.188,49.195,79.515,42.471l294.513-29.818l247.414-23.412c0,0,40.51,1.117,38.23-43.907l0.113-311.769l-208.682-2.28
	c0,0-68.961-0.569-66.111,58.132l-0.569,51.293c0,0-1.14,49.014,60.411,47.304l116.264-1.14l-0.569-32.509l-95.177,0.57
	c0,0-42.356,4.172-40.465-49.583c0,0,0-16.528,6.27-17.098h94.606h99.736l1.71,164.137l-174.966,1.14
	c0,0-59.568,5.426-89.979-33.055c0,0-30.844-29.637-30.844-86.628"/>
<path fill="#66B76C" d="M307.757,572.201h143.62c0,0,21.384-4.446,22.228,14.909c0.866,19.354-10.259,27.196-23.937,26.421
	c-13.679-0.775-141.911-0.228-141.911-0.228V572.201z"/>
<g>
	<defs>
		<path id="SVGID_1_" d="M360.189,198.333l447.389,38.754c57.562,3.42,49.013,47.874,49.013,47.874l0.753,120.253l-208.204,1.14
			c-113.414-1.14-113.414,87.198-113.414,87.198c8.549-104.865-138.491-95.747-138.491-95.747
			C388.686,357.341,360.189,198.333,360.189,198.333z M526.881,571.745c0,0,11.489,52.387-12.493,73.815
			c0,0,110.838,163.34,185.292,193.933l125.52-12.446c0,0,34.173,1.983,34.241-45.891V471.895l-193.021-2.279
			c0,0-72.677-7.797-81.545,49.31l-0.638,52.843c0,0,0.866,49.834,57.858,52.866h117.039l0.752-31.164l-89.66,1.528
			c0,0-59.271-7.592-44.841-62.305c0,0-2.28-4.559,7.591-6.086h192.269l3.032,164.137l-180.848,2.28
			C647.43,693.024,540.81,692.135,526.881,571.745z"/>
	</defs>
	<clipPath id="SVGID_2_">
		<use xlink:href="#SVGID_1_"  overflow="visible"/>
	</clipPath>
	
		<linearGradient id="SVGID_3_" gradientUnits="userSpaceOnUse" x1="-677.8779" y1="3765.0313" x2="-458.7344" y2="3765.0313" gradientTransform="matrix(2.2797 0 0 -2.2797 1905.5366 9102.0176)">
		<stop  offset="0" style="stop-color:#FFFFFF"/>
		<stop  offset="1" style="stop-color:#FFFFFF;stop-opacity:0"/>
	</linearGradient>
	<path opacity="0.5" clip-path="url(#SVGID_2_)" fill="url(#SVGID_3_)" enable-background="new    " d="M786.217,231.685
		l28.793,2.279c0,0,29.636,0,37.614,14.545c0,0,7.409,4.855,7.136,29.932l-0.229,507.8c0,0,0.867,16.71-7.705,27.311
		c-8.571,10.601-19.696,13.04-32.212,14.226c-12.515,1.186-119.706,11.763-119.706,11.763S419.462,677.066,360.189,198.333
		L786.217,231.685z"/>
</g>
<polygon fill="#03568C" points="160.581,108.012 54.712,91.461 54.712,180.095 161.857,180.095 "/>
<polygon fill="#03568C" points="182.375,88.908 182.375,177.815 284.96,177.815 284.96,118.544 "/>
<polygon fill="#03568C" points="202.892,80.177 134.501,61.255 134.501,2.28 202.892,11.877 "/>
<polygon fill="#03568C" points="0,52.433 0,0 59.271,11.398 59.271,61.552 "/>
<linearGradient id="SVGID_4_" gradientUnits="userSpaceOnUse" x1="-779.0313" y1="3869.6592" x2="-746.6597" y2="3869.6592" gradientTransform="matrix(2.2644 0.2633 0.2633 -2.2644 837.9233 9102.9121)">
	<stop  offset="0" style="stop-color:#FFFFFF"/>
	<stop  offset="1" style="stop-color:#FFFFFF;stop-opacity:0"/>
</linearGradient>
<path opacity="0.3" fill="url(#SVGID_4_)" enable-background="new    " d="M157.526,107.646l-4.286-0.752l-56.126-8.937
	c0.479,50.905,35.404,70.989,35.404,70.989s21.019,11.398,22.66,11.444c1.642,0.046,3.625-0.297,4.879-0.297
	c1.801,0,1.801,0,1.801,0l0.046-68.299l-0.365-3.647L157.526,107.646z"/>
<linearGradient id="SVGID_5_" gradientUnits="userSpaceOnUse" x1="-722.5752" y1="3875.8662" x2="-693.145" y2="3875.8662" gradientTransform="matrix(2.2644 0.2633 0.2633 -2.2644 837.9233 9102.9121)">
	<stop  offset="0" style="stop-color:#FFFFFF"/>
	<stop  offset="1" style="stop-color:#FFFFFF;stop-opacity:0"/>
</linearGradient>
<path opacity="0.3" fill="url(#SVGID_5_)" enable-background="new    " d="M282.179,116.72l-3.146-0.684l-52.775-14.431
	c0.342,46.483,23.891,57.426,23.891,57.426s29.066,18.784,30.274,18.807c1.208,0.023,2.689,0,3.602,0c0.502,0,0.912,0,0.912,0
	l0.434-57.562l-0.273-3.215L282.179,116.72z"/>
<linearGradient id="SVGID_6_" gradientUnits="userSpaceOnUse" x1="-759.4717" y1="3914.3916" x2="-733.8413" y2="3914.3916" gradientTransform="matrix(2.2644 0.2633 0.2633 -2.2644 837.9233 9102.9121)">
	<stop  offset="0" style="stop-color:#FFFFFF"/>
	<stop  offset="1" style="stop-color:#FFFFFF;stop-opacity:0"/>
</linearGradient>
<path opacity="0.3" fill="url(#SVGID_6_)" enable-background="new    " d="M202.892,11.262l-4.787-0.046L152.83,4.856
	c6.337,39.598,17.736,50.586,17.736,50.586s23.549,22.592,24.552,22.614s3.511,1.186,4.286,1.186c0.411,0,3.488,0.957,3.488,0.957
	l0.365-55.305l-0.228-2.667L202.892,11.262z"/>
</svg>
