<svg xmlns="http://www.w3.org/2000/svg" viewBox="0 0 429.88 157.73"><defs><style>.cls-1{fill:#01568b;}.cls-2{fill:#67b66c;}</style></defs><g id="Layer_2" data-name="Layer 2"><g id="Layer_1-2" data-name="Layer 1"><path class="cls-1" d="M121,76.25h-2.75q-.21,1.94-.51,4c-.2,1.4-.44,2.74-.71,4l-3.5,15h12.19l-3.49-15c-.28-1.29-.51-2.63-.72-4S121.11,77.54,121,76.25Z"/><polygon class="cls-1" points="29.94 19.52 11 16.38 11 32.62 30.16 32.62 29.94 19.52"/><polygon class="cls-1" points="34 15.92 34 30.61 53 30.61 53 21.23 34 15.92"/><polygon class="cls-1" points="38 14.36 25 10.97 25 0.41 38 2.13 38 14.36"/><polygon class="cls-1" points="0 9.39 0 0 13 2.04 13 11.02 0 9.39"/><path class="cls-1" d="M36.34,80.48A14.43,14.43,0,0,1,40,74.9a16.8,16.8,0,0,1,12-4.44q5.91,0,12.23.05c4.22,0,11.15.16,15.17.36s7.61.55,10.8,1l-3.74,15.5H61.84a4.72,4.72,0,0,0-3.21,1,3.32,3.32,0,0,0-1.18,2.65v8.26h35.1l9.56-33.88a7.43,7.43,0,0,1,2.75-4.18,7.6,7.6,0,0,1,4.69-1.53h20.09a7.62,7.62,0,0,1,4.69,1.53,7.49,7.49,0,0,1,2.75,4.18l17.86,63.26-.44-77.49c.61-9.19-7.66-8.75-7.66-8.75L45.62,34.09C34.81,33.48,36,41.23,36,41.23Z"/><path class="cls-2" d="M132.8,130.08,129.28,114H109.91l-3.52,16.08H83.86L88.4,114H57.45v27.22H36.86l.08,8.67s-.39,8.93,14.23,7.72l52.71-5.27,44.29-4.17s7.25.22,6.84-7.85L155,130.08Z"/><path class="cls-1" d="M179.16,46.83h6.24q4.26,0,6.2,1.22a4.23,4.23,0,0,1,1.92,3.86,4.91,4.91,0,0,1-.84,3,3.37,3.37,0,0,1-2.24,1.38v.14A4.41,4.41,0,0,1,193.19,58a5.2,5.2,0,0,1,.84,3.1,5.14,5.14,0,0,1-2,4.29,8.61,8.61,0,0,1-5.39,1.53h-7.5Zm4.25,8h2.47a4.55,4.55,0,0,0,2.5-.53,2,2,0,0,0,.78-1.77,1.79,1.79,0,0,0-.84-1.66,5.51,5.51,0,0,0-2.67-.5h-2.24Zm0,3.38v5.23h2.77a4.13,4.13,0,0,0,2.6-.67,2.51,2.51,0,0,0,.83-2.06q0-2.5-3.57-2.5Z"/><path class="cls-1" d="M198,66.9V46.83h4.25V66.9Z"/><path class="cls-1" d="M215.86,50.09a4.34,4.34,0,0,0-3.72,1.8,8.4,8.4,0,0,0-1.32,5q0,6.72,5,6.72A16.09,16.09,0,0,0,221,62.58v3.57a14.36,14.36,0,0,1-5.52,1,8.39,8.39,0,0,1-6.69-2.66q-2.33-2.65-2.32-7.62a12.46,12.46,0,0,1,1.14-5.49,8.26,8.26,0,0,1,3.27-3.61,9.74,9.74,0,0,1,5-1.25A13.49,13.49,0,0,1,221.73,48l-1.37,3.46a20.69,20.69,0,0,0-2.26-.93A6.67,6.67,0,0,0,215.86,50.09Z"/><path class="cls-1" d="M237.09,61.33a5.19,5.19,0,0,1-2,4.28,8.45,8.45,0,0,1-5.44,1.57A12.72,12.72,0,0,1,224,66V62a22.69,22.69,0,0,0,3.44,1.27,10,10,0,0,0,2.57.37,3.65,3.65,0,0,0,2.15-.53,1.83,1.83,0,0,0,.75-1.59,1.73,1.73,0,0,0-.33-1,3.68,3.68,0,0,0-1-.89,25.4,25.4,0,0,0-2.6-1.36,12,12,0,0,1-2.76-1.66,6.39,6.39,0,0,1-1.47-1.85,5.38,5.38,0,0,1-.55-2.47,5.18,5.18,0,0,1,1.81-4.19,7.45,7.45,0,0,1,5-1.52,11.67,11.67,0,0,1,3,.37,19.23,19.23,0,0,1,3,1l-1.37,3.31a19.43,19.43,0,0,0-2.66-.92,8.74,8.74,0,0,0-2.06-.26,2.74,2.74,0,0,0-1.85.56,1.88,1.88,0,0,0-.65,1.47,1.84,1.84,0,0,0,.26,1,2.92,2.92,0,0,0,.83.81,26.22,26.22,0,0,0,2.7,1.41A10.51,10.51,0,0,1,236,58,5.22,5.22,0,0,1,237.09,61.33Z"/><path class="cls-1" d="M255.64,55.63h7.95V66a22.5,22.5,0,0,1-3.64.88,23.6,23.6,0,0,1-3.49.26q-4.54,0-6.94-2.67t-2.39-7.67a10.14,10.14,0,0,1,2.78-7.58q2.78-2.71,7.7-2.71a15,15,0,0,1,6,1.23l-1.42,3.41a10,10,0,0,0-4.57-1.1,5.64,5.64,0,0,0-4.41,1.85,7.19,7.19,0,0,0-1.66,5,8,8,0,0,0,1.33,5,4.64,4.64,0,0,0,3.89,1.73,14.09,14.09,0,0,0,2.71-.28V59.18h-3.8Z"/><path class="cls-1" d="M268.37,66.9V46.83h4.25V63.39h8.14V66.9Z"/><path class="cls-1" d="M302.45,56.84c0,3.32-.82,5.88-2.47,7.66s-4,2.68-7.08,2.68-5.43-.89-7.08-2.68-2.47-4.35-2.47-7.69.83-5.89,2.48-7.65,4-2.64,7.1-2.64,5.44.89,7.07,2.66S302.45,53.51,302.45,56.84Zm-14.64,0a8.42,8.42,0,0,0,1.28,5.07,4.47,4.47,0,0,0,3.81,1.7c3.4,0,5.09-2.26,5.09-6.77s-1.69-6.78-5.06-6.78a4.5,4.5,0,0,0-3.83,1.71A8.35,8.35,0,0,0,287.81,56.84Z"/><path class="cls-1" d="M306.61,46.83h6.24c2.85,0,4.91.41,6.2,1.22A4.23,4.23,0,0,1,321,51.91a4.91,4.91,0,0,1-.84,3,3.37,3.37,0,0,1-2.24,1.38v.14A4.39,4.39,0,0,1,320.64,58a5.2,5.2,0,0,1,.84,3.1,5.14,5.14,0,0,1-2,4.29,8.61,8.61,0,0,1-5.39,1.53h-7.5Zm4.25,8h2.47a4.62,4.62,0,0,0,2.51-.53,2,2,0,0,0,.77-1.77,1.79,1.79,0,0,0-.84-1.66,5.51,5.51,0,0,0-2.67-.5h-2.24Zm0,3.38v5.23h2.77a4.13,4.13,0,0,0,2.6-.67,2.51,2.51,0,0,0,.83-2.06q0-2.5-3.56-2.5Z"/><path class="cls-1" d="M337.77,66.9l-1.46-4.77H329l-1.45,4.77H323L330,46.75h5.2l7.11,20.15Zm-2.47-8.34c-1.35-4.33-2.1-6.78-2.27-7.35s-.29-1-.37-1.34q-.45,1.76-2.59,8.69Z"/><path class="cls-1" d="M344.88,66.9V46.83h4.25V63.39h8.14V66.9Z"/><path class="cls-2" d="M200.46,82l-9,0a12.34,12.34,0,0,0-8.85,3.26,11.17,11.17,0,0,0-3.45,8.51V134h16.27V114H214v-10.8H195.43V97.12a2.48,2.48,0,0,1,.86-2,3.51,3.51,0,0,1,2.37-.75h18.07l.75-11.4q-3.53-.52-7.95-.75T200.46,82Z"/><rect class="cls-2" x="221.98" y="96.52" width="15.67" height="37.5"/><path class="cls-2" d="M233.16,79.34h-6.68q-4.57,0-4.57,4.65v3.83q0,4.65,4.57,4.65h6.68q4.58,0,4.57-4.65V84Q237.73,79.34,233.16,79.34Z"/><path class="cls-2" d="M273.66,95.47a20.75,20.75,0,0,0-8,1.72,26.32,26.32,0,0,0-7.44,4.87l-1.41-5.54H244.41V134h15.75V109.64a19.16,19.16,0,0,1,3-.67,25.44,25.44,0,0,1,3.19-.23,3.39,3.39,0,0,1,2.1.49A2.16,2.16,0,0,1,269,111v23h15.75V106Q284.76,95.47,273.66,95.47Z"/><path class="cls-2" d="M324.21,83.39a5.64,5.64,0,0,0-3.46-1.12H306a5.59,5.59,0,0,0-3.45,1.12,5.52,5.52,0,0,0-2,3.08L287.08,134h16.58l2.58-11.18h14.25L323.08,134h16.58L326.23,86.47A5.56,5.56,0,0,0,324.21,83.39Zm-15.33,28.05,2.58-11.1c.19-1,.37-1.94.52-3s.27-2,.37-3h2c.1,1,.22,1.93.37,3s.33,2,.53,3l2.57,11.1Z"/><path class="cls-2" d="M369.88,95.62a20.18,20.18,0,0,0-6.15.93A18.22,18.22,0,0,0,358.67,99a10.57,10.57,0,0,0-2.58,2.54l-1.29-5H342.2v51H358v-7.43c.05-1.75,0-3.57-.07-5.47-.05-.94-.11-1.84-.17-2.7a12.18,12.18,0,0,0,3.51,1.87,24.36,24.36,0,0,0,8,1.28,16.93,16.93,0,0,0,7.8-1.62,10.3,10.3,0,0,0,4.77-5.81q1.61-4.2,1.61-11.92,0-9.6-3.08-14.85T369.88,95.62Zm-3.11,26.13a3.69,3.69,0,0,1-1.35,2.48,5,5,0,0,1-2.52.56,10.76,10.76,0,0,1-3.71-.52l-1.24-.45V108.26c.72-.35,1.43-.66,2.1-.91a9.38,9.38,0,0,1,3.08-.41,4.55,4.55,0,0,1,2.32.53,3.57,3.57,0,0,1,1.32,2.43,31.63,31.63,0,0,1,.41,6A30.83,30.83,0,0,1,366.77,121.75Z"/><path class="cls-2" d="M426.8,100.87q-3.07-5.25-10.42-5.25a20.18,20.18,0,0,0-6.15.93A18.22,18.22,0,0,0,405.17,99a10.57,10.57,0,0,0-2.58,2.54l-1.29-5H388.7v51h15.75v-7.43c.05-1.75,0-3.57-.07-5.47-.05-.94-.11-1.84-.17-2.7a12.18,12.18,0,0,0,3.51,1.87,24.36,24.36,0,0,0,8,1.28,16.93,16.93,0,0,0,7.8-1.62,10.3,10.3,0,0,0,4.77-5.81q1.61-4.2,1.61-11.92Q429.88,106.12,426.8,100.87Zm-13.53,20.88a3.69,3.69,0,0,1-1.35,2.48,5,5,0,0,1-2.52.56,10.76,10.76,0,0,1-3.71-.52l-1.24-.45V108.26c.72-.35,1.43-.66,2.1-.91a9.38,9.38,0,0,1,3.08-.41,4.55,4.55,0,0,1,2.32.53,3.57,3.57,0,0,1,1.32,2.43,31.63,31.63,0,0,1,.41,6A30.83,30.83,0,0,1,413.27,121.75Z"/></g></g></svg>