<svg xmlns="http://www.w3.org/2000/svg" viewBox="0 0 332.59 104.13"><defs><style>.cls-1{fill:#f37020;}.cls-2{fill:#fdb912;}.cls-3{fill:gray;}.cls-4{fill:#505050;}</style></defs><g id="Layer_2" data-name="Layer 2"><g id="Layer_1-2" data-name="Layer 1"><path class="cls-1" d="M32,39.51l6.34-15.33H0V94.37H19.85V80.73H33l7-15.82H19.85V39.51Z"/><path class="cls-2" d="M65.51,24.18H46L32.53,59.44H49.91l5.68-15.81,9,21.28H46.69l-7,15.82H70.41l5.52,13.64H96.59Z"/><path class="cls-3" d="M120.81,24.41h4.62a8.88,8.88,0,0,1,4.58.9,3.13,3.13,0,0,1,1.43,2.86,3.59,3.59,0,0,1-.63,2.18,2.5,2.5,0,0,1-1.66,1v.1a3.28,3.28,0,0,1,2,1.18,3.86,3.86,0,0,1,.62,2.29,3.78,3.78,0,0,1-1.47,3.17,6.3,6.3,0,0,1-4,1.14h-5.55ZM124,30.29h1.83a3.28,3.28,0,0,0,1.85-.4,1.46,1.46,0,0,0,.58-1.31,1.3,1.3,0,0,0-.63-1.22,3.94,3.94,0,0,0-2-.37H124Zm0,2.5v3.87H126a3,3,0,0,0,1.91-.5,1.81,1.81,0,0,0,.62-1.52c0-1.24-.88-1.85-2.64-1.85Z"/><path class="cls-3" d="M134.78,39.26V24.41h3.14V39.26Z"/><path class="cls-3" d="M148,26.82a3.21,3.21,0,0,0-2.75,1.33,6.21,6.21,0,0,0-1,3.72c0,3.32,1.24,5,3.72,5a11.77,11.77,0,0,0,3.79-.78V38.7a10.48,10.48,0,0,1-4.08.76,6.2,6.2,0,0,1-4.95-2A8.32,8.32,0,0,1,141,31.85a9.21,9.21,0,0,1,.84-4.05,6,6,0,0,1,2.42-2.67,7.19,7.19,0,0,1,3.7-.93,10,10,0,0,1,4.35,1l-1,2.56c-.55-.26-1.11-.49-1.67-.69A4.88,4.88,0,0,0,148,26.82Z"/><path class="cls-3" d="M163.67,35.13a3.81,3.81,0,0,1-1.45,3.17,6.21,6.21,0,0,1-4,1.16,9.55,9.55,0,0,1-4.21-.89V35.64a18.05,18.05,0,0,0,2.55,1,7.62,7.62,0,0,0,1.9.27,2.67,2.67,0,0,0,1.59-.4,1.47,1.47,0,0,0,.31-2,2.6,2.6,0,0,0-.72-.66,17.7,17.7,0,0,0-1.92-1,9.19,9.19,0,0,1-2-1.23,4.65,4.65,0,0,1-1.09-1.37,3.92,3.92,0,0,1-.4-1.83,3.84,3.84,0,0,1,1.33-3.1,5.55,5.55,0,0,1,3.69-1.12,8.86,8.86,0,0,1,2.21.27,15.29,15.29,0,0,1,2.2.77l-1,2.45a14.11,14.11,0,0,0-2-.68,6.28,6.28,0,0,0-1.53-.19,2.06,2.06,0,0,0-1.37.41,1.38,1.38,0,0,0-.48,1.09,1.35,1.35,0,0,0,.2.73,2,2,0,0,0,.61.59,19.43,19.43,0,0,0,2,1.05,7.92,7.92,0,0,1,2.86,2A3.94,3.94,0,0,1,163.67,35.13Z"/><path class="cls-3" d="M177.39,30.92h5.89v7.7a16.07,16.07,0,0,1-2.69.65,17.07,17.07,0,0,1-2.59.19,6.55,6.55,0,0,1-5.13-2,8.24,8.24,0,0,1-1.77-5.68,7.48,7.48,0,0,1,2.06-5.6,7.8,7.8,0,0,1,5.7-2,11,11,0,0,1,4.4.91l-1,2.52a7.51,7.51,0,0,0-3.38-.81,4.16,4.16,0,0,0-3.27,1.37,5.3,5.3,0,0,0-1.23,3.68,5.93,5.93,0,0,0,1,3.7,3.42,3.42,0,0,0,2.88,1.27,10.68,10.68,0,0,0,2-.2v-3.1h-2.82Z"/><path class="cls-3" d="M186.82,39.26V24.41H190V36.66h6v2.6Z"/><path class="cls-3" d="M212,31.81a8.1,8.1,0,0,1-1.82,5.67,7.92,7.92,0,0,1-10.48,0,8.09,8.09,0,0,1-1.83-5.69,8,8,0,0,1,1.83-5.66A6.89,6.89,0,0,1,205,24.18a6.73,6.73,0,0,1,5.23,2A8.05,8.05,0,0,1,212,31.81Zm-10.83,0a6.28,6.28,0,0,0,.94,3.75A3.31,3.31,0,0,0,205,36.82q3.76,0,3.76-5t-3.74-5a3.32,3.32,0,0,0-2.83,1.26A6.13,6.13,0,0,0,201.2,31.81Z"/><path class="cls-3" d="M215.11,24.41h4.62a8.88,8.88,0,0,1,4.58.9,3.13,3.13,0,0,1,1.43,2.86,3.59,3.59,0,0,1-.63,2.18,2.5,2.5,0,0,1-1.66,1v.1a3.28,3.28,0,0,1,2,1.18,3.79,3.79,0,0,1,.62,2.29,3.8,3.8,0,0,1-1.46,3.17,6.35,6.35,0,0,1-4,1.14h-5.55Zm3.15,5.88h1.82a3.31,3.31,0,0,0,1.86-.4,1.48,1.48,0,0,0,.57-1.31,1.32,1.32,0,0,0-.62-1.22,4,4,0,0,0-2-.37h-1.65Zm0,2.5v3.87h2.05a3.08,3.08,0,0,0,1.92-.5,1.84,1.84,0,0,0,.61-1.52c0-1.24-.88-1.85-2.63-1.85Z"/><path class="cls-3" d="M238.16,39.26l-1.07-3.54h-5.41l-1.08,3.54h-3.39l5.24-14.91h3.85l5.25,14.91Zm-1.82-6.18q-1.5-4.8-1.68-5.43c-.13-.42-.22-.75-.27-1q-.34,1.3-1.92,6.43Z"/><path class="cls-3" d="M243.42,39.26V24.41h3.15V36.66h6v2.6Z"/><path class="cls-4" d="M131.56,61.83v8.79H149.2v8.73H131.56v13.7h-11.3V53.1H151.6v8.73Z"/><path class="cls-4" d="M154.62,52.93c0-3.26,2.63-5.77,6.62-5.77s6.62,2.34,6.62,5.59c0,3.43-2.62,5.94-6.62,5.94S154.62,56.18,154.62,52.93Zm1.2,9.19h10.85V93.05H155.82Z"/><path class="cls-4" d="M206.62,75.36V93.05H195.78V77.13c0-4.46-1.95-6.34-5.08-6.34-3.49,0-6.17,2.17-6.17,7.31v15H173.68V62.12H184v3.36a13.26,13.26,0,0,1,9.81-3.88C201.08,61.6,206.62,65.77,206.62,75.36Z"/><path class="cls-4" d="M240.69,85.29H223.8l-3.14,7.76H209.13L226.77,53.1H237.9l17.69,39.95H243.84ZM237.39,77l-5.14-12.79L227.11,77Z"/><path class="cls-4" d="M292.92,77.58c0,9.82-6.79,16-15.18,16a11.53,11.53,0,0,1-8.62-3.26v13.82H258.27v-42h10.34V65.2c2.05-2.46,5.08-3.6,9.13-3.6C286.13,61.6,292.92,67.77,292.92,77.58Zm-11,0c0-4.68-2.85-7.36-6.5-7.36S269,72.9,269,77.58,271.8,85,275.46,85,282,82.27,282,77.58Z"/><path class="cls-4" d="M332.59,77.58c0,9.82-6.79,16-15.18,16a11.53,11.53,0,0,1-8.62-3.26v13.82H297.94v-42h10.33V65.2c2.06-2.46,5.08-3.6,9.14-3.6C325.8,61.6,332.59,67.77,332.59,77.58Zm-11,0c0-4.68-2.85-7.36-6.51-7.36s-6.5,2.68-6.5,7.36,2.85,7.37,6.5,7.37S321.63,82.27,321.63,77.58Z"/><path class="cls-1" d="M56.48,14.34H74.76v0a7.8,7.8,0,0,1-3.15,6l1.85,4.18c4.18-2,7.33-5.47,8-10.25h5.72l3.13-4.7H81.36A10.33,10.33,0,0,0,79,4.71h8.17L90.3,0H59.61L56.48,4.71h5.33c5.39,0,10.37.41,12.36,4.93H59.61Z"/></g></g></svg>